:FULLY-SPECIFIED
:FORCE-ALL-JOINTS-BE-3DOF
:DEGREES
1
root 7.46593 15.9937 -36.7321 7.11356 1.31487 -3.66776
lfemur -40.6897 6.42258 -16.3516
ltibia 43.9106 0 0
lfoot -14.6186 8.34667 0
ltoes -11.8487 0 0
rfemur -9.89801 4.72659 30.1099
rtibia 24.1198 0 0
rfoot 0 0 0
rtoes 0 0 0
lowerback -4.29912 0.189404 0.939401
upperback -1.51886 0.185188 2.55702
thorax 0.845091 0.0960327 2.10705
lowerneck -18.6579 -5.17414 -13.3376
upperneck 13.6797 -6.63107 16.9236
head 8.38994 -2.28192 7.17028
lclavicle 6.33626e-015 1.59028e-014 0
lhumerus -35.9267 -2.97855 86.2544
lradius 27.4056 0 0
lwrist 7.30557 0 0
lhand -13.3003 -23.0211 0
lfingers 7.12502 0 0
lthumb 12.8038 6.56624 0
rclavicle 6.33626e-015 1.59028e-014 0
rhumerus -38.7688 17.4551 -84.1031
rradius 56.1989 0 0
rwrist -28.5696 0 0
rhand -33.2015 -25.7513 0
rfingers 7.12502 0 0
rthumb -6.4087 -55.6344 0
2
root 7.48176 15.9852 -36.5899 7.12934 1.01634 -3.7857
lfemur -40.6944 6.37055 -16.0994
ltibia 43.24 0 0
lfoot -14.5063 8.45391 0
ltoes -11.8701 0 0
rfemur -8.97816 4.7977 30.1362
rtibia 23.3417 0 0
rfoot -0.372055 -0.0194694 0
rtoes -1.07372 0 0
lowerback -4.42802 0.233633 1.03868
upperback -1.50152 0.22969 2.58972
thorax 0.935342 0.119005 2.09151
lowerneck -18.719 -5.1533 -13.2891
upperneck 13.763 -6.605 16.8553
head 8.42018 -2.27004 7.14351
lclavicle 7.03682e-015 1.57746e-014 0
lhumerus -36.1525 -3.14893 86.4062
lradius 27.3612 0 0
lwrist 7.17112 0 0
lhand -13.2449 -23.1382 0
lfingers 7.12502 0 0
lthumb 12.8572 6.44552 0
rclavicle 7.03682e-015 1.57746e-014 0
rhumerus -38.9376 17.5626 -84.3871
rradius 56.3536 0 0
rwrist -28.6198 0 0
rhand -33.1035 -25.9165 0
rfingers 7.12502 0 0
rthumb -6.31411 -55.8018 0
3
root 7.49759 15.9766 -36.4476 7.14511 0.717808 -3.90364
lfemur -40.6992 6.31853 -15.8472
ltibia 42.5694 0 0
lfoot -14.3941 8.56116 0
ltoes -11.8915 0 0
rfemur -8.05831 4.86882 30.1626
rtibia 22.5637 0 0
rfoot -0.74411 -0.0389387 0
rtoes -2.14745 0 0
lowerback -4.55692 0.277862 1.13796
upperback -1.48418 0.274193 2.62242
thorax 1.02559 0.141978 2.07598
lowerneck -18.7802 -5.13246 -13.2405
upperneck 13.8464 -6.57893 16.7869
head 8.45042 -2.25817 7.11674
lclavicle 7.73737e-015 1.56463e-014 0
lhumerus -36.3782 -3.31931 86.558
lradius 27.3168 0 0
lwrist 7.03667 0 0
lhand -13.1894 -23.2554 0
lfingers 7.12502 0 0
lthumb 12.9106 6.32479 0
rclavicle 7.73737e-015 1.56463e-014 0
rhumerus -39.1065 17.6701 -84.6711
rradius 56.5082 0 0
rwrist -28.67 0 0
rhand -33.0056 -26.0816 0
rfingers 7.12502 0 0
rthumb -6.21953 -55.9691 0
4
root 7.51342 15.9681 -36.3054 7.16089 0.419277 -4.02158
lfemur -40.7039 6.2665 -15.5949
ltibia 41.8988 0 0
lfoot -14.2818 8.6684 0
ltoes -11.9129 0 0
rfemur -7.13846 4.93993 30.1889
rtibia 21.7856 0 0
rfoot -1.11616 -0.0584081 0
rtoes -3.22117 0 0
lowerback -4.68581 0.322091 1.23725
upperback -1.46684 0.318695 2.65513
thorax 1.11584 0.16495 2.06044
lowerneck -18.8413 -5.11162 -13.192
upperneck 13.9297 -6.55286 16.7186
head 8.48066 -2.24629 7.08996
lclavicle 8.43793e-015 1.55181e-014 0
lhumerus -36.604 -3.48969 86.7098
lradius 27.2724 0 0
lwrist 6.90221 0 0
lhand -13.134 -23.3725 0
lfingers 7.12502 0 0
lthumb 12.9641 6.20407 0
rclavicle 8.43793e-015 1.55181e-014 0
rhumerus -39.2753 17.7777 -84.9551
rradius 56.6629 0 0
rwrist -28.7203 0 0
rhand -32.9076 -26.2468 0
rfingers 7.12502 0 0
rthumb -6.12494 -56.1365 0
5
root 7.52926 15.9596 -36.1632 7.17667 0.120746 -4.13951
lfemur -40.7087 6.21447 -15.3427
ltibia 41.2283 0 0
lfoot -14.1695 8.77564 0
ltoes -11.9343 0 0
rfemur -6.21862 5.01104 30.2153
rtibia 21.0076 0 0
rfoot -1.48822 -0.0778774 0
rtoes -4.29489 0 0
lowerback -4.81471 0.36632 1.33653
upperback -1.4495 0.363197 2.68783
thorax 1.20609 0.187923 2.0449
lowerneck -18.9024 -5.09078 -13.1434
upperneck 14.013 -6.52678 16.6503
head 8.5109 -2.23442 7.06319
lclavicle 9.13848e-015 1.53898e-014 0
lhumerus -36.8298 -3.66007 86.8616
lradius 27.228 0 0
lwrist 6.76776 0 0
lhand -13.0786 -23.4897 0
lfingers 7.12502 0 0
lthumb 13.0175 6.08335 0
rclavicle 9.13848e-015 1.53898e-014 0
rhumerus -39.4442 17.8852 -85.2391
rradius 56.8176 0 0
rwrist -28.7705 0 0
rhand -32.8097 -26.412 0
rfingers 7.12502 0 0
rthumb -6.03036 -56.3039 0
6
root 7.54509 15.9511 -36.0209 7.19245 -0.177785 -4.25745
lfemur -40.7134 6.16244 -15.0905
ltibia 40.5577 0 0
lfoot -14.0573 8.88288 0
ltoes -11.9557 0 0
rfemur -5.29877 5.08216 30.2416
rtibia 20.2295 0 0
rfoot -1.86027 -0.0973468 0
rtoes -5.36861 0 0
lowerback -4.94361 0.410549 1.43581
upperback -1.43216 0.4077 2.72053
thorax 1.29634 0.210895 2.02936
lowerneck -18.9636 -5.06994 -13.0949
upperneck 14.0963 -6.50071 16.582
head 8.54114 -2.22254 7.03642
lclavicle 9.83904e-015 1.52616e-014 0
lhumerus -37.0556 -3.83045 87.0134
lradius 27.1836 0 0
lwrist 6.63331 0 0
lhand -13.0231 -23.6068 0
lfingers 7.12502 0 0
lthumb 13.0709 5.96263 0
rclavicle 9.83904e-015 1.52616e-014 0
rhumerus -39.613 17.9927 -85.5231
rradius 56.9723 0 0
rwrist -28.8207 0 0
rhand -32.7117 -26.5771 0
rfingers 7.12502 0 0
rthumb -5.93577 -56.4712 0
7
root 7.56092 15.9425 -35.8787 7.20822 -0.476316 -4.37539
lfemur -40.7182 6.11042 -14.8383
ltibia 39.8871 0 0
lfoot -13.945 8.99013 0
ltoes -11.9771 0 0
rfemur -4.37892 5.15327 30.2679
rtibia 19.4515 0 0
rfoot -2.23233 -0.116816 0
rtoes -6.44234 0 0
lowerback -5.07251 0.454777 1.53509
upperback -1.41483 0.452202 2.75323
thorax 1.38659 0.233867 2.01383
lowerneck -19.0247 -5.04909 -13.0463
upperneck 14.1797 -6.47464 16.5136
head 8.57138 -2.21067 7.00965
lclavicle 1.05396e-014 1.51333e-014 0
lhumerus -37.2813 -4.00083 87.1652
lradius 27.1392 0 0
lwrist 6.49886 0 0
lhand -12.9677 -23.7239 0
lfingers 7.12502 0 0
lthumb 13.1243 5.8419 0
rclavicle 1.05396e-014 1.51333e-014 0
rhumerus -39.7819 18.1002 -85.8071
rradius 57.1269 0 0
rwrist -28.8709 0 0
rhand -32.6137 -26.7423 0
rfingers 7.12502 0 0
rthumb -5.84119 -56.6386 0
8
root 7.57675 15.934 -35.7365 7.224 -0.774847 -4.49333
lfemur -40.7229 6.05839 -14.5861
ltibia 39.2165 0 0
lfoot -13.8327 9.09737 0
ltoes -11.9985 0 0
rfemur -3.45907 5.22438 30.2943
rtibia 18.6734 0 0
rfoot -2.60438 -0.136285 0
rtoes -7.51606 0 0
lowerback -5.2014 0.499006 1.63437
upperback -1.39749 0.496704 2.78593
thorax 1.47685 0.25684 1.99829
lowerneck -19.0858 -5.02825 -12.9978
upperneck 14.263 -6.44857 16.4453
head 8.60162 -2.19879 6.98287
lclavicle 1.12402e-014 1.50051e-014 0
lhumerus -37.5071 -4.17121 87.317
lradius 27.0948 0 0
lwrist 6.3644 0 0
lhand -12.9123 -23.8411 0
lfingers 7.12502 0 0
lthumb 13.1778 5.72118 0
rclavicle 1.12402e-014 1.50051e-014 0
rhumerus -39.9507 18.2078 -86.0911
rradius 57.2816 0 0
rwrist -28.9211 0 0
rhand -32.5158 -26.9075 0
rfingers 7.12502 0 0
rthumb -5.7466 -56.806 0
